<svg width="78" height="26" viewBox="0 0 78 26" fill="none" xmlns="http://www.w3.org/2000/svg">
<path d="M6.20437 20.2991V4.61903H1.45985V20.2991H6.20437Z" fill="url(#paint0_linear)"/>
<path d="M7.11107 0H1.45985V4.61906H7.82959C10.8063 4.61906 12.9676 5.28056 14.3134 6.60355C15.8074 8.0748 16.5545 10.1448 16.5545 12.8136C16.5545 14.5472 16.2408 15.8284 15.6136 17.0145C14.9863 18.2006 14.1765 19.0446 13.1843 19.5464C12.2034 20.0482 10.6181 20.2992 8.42836 20.2992H1.45985V25.1653H7.19661C10.4585 25.1653 12.7509 24.96 14.0739 24.5495C15.3969 24.1389 16.6229 23.3975 17.752 22.3255C18.8925 21.2534 19.7821 19.9076 20.4208 18.2881C21.0709 16.6571 21.3959 14.8722 21.3959 12.9334C21.3959 10.2076 20.82 7.82389 19.6681 5.78238C18.5162 3.74087 17.0506 2.26961 15.2714 1.36861C13.4922 0.456204 10.7721 0 7.11107 0Z" fill="#03C1CF"/>
<path d="M1.45985 0V4.61906C0.653598 4.61906 0 3.96546 0 3.15921V1.45985C0 0.653598 0.653598 0 1.45985 0Z" fill="#03C1CF"/>
<path d="M41.2203 17.8959H28.2887C28.4755 19.0362 28.9719 19.9455 29.778 20.6238C30.5939 21.2922 31.631 21.6265 32.8892 21.6265C34.3933 21.6265 35.6859 21.1005 36.7673 20.0487L40.1587 21.6412C39.3133 22.8405 38.3008 23.7301 37.1211 24.3101C35.9415 24.8802 34.5407 25.1653 32.9187 25.1653C30.4022 25.1653 28.3526 24.374 26.7699 22.7913C25.1873 21.1988 24.3959 19.2082 24.3959 16.8195C24.3959 14.3718 25.1824 12.3418 26.7552 10.7297C28.3379 9.10768 30.3186 8.29669 32.6976 8.29669C35.2239 8.29669 37.2784 9.10768 38.8611 10.7297C40.4438 12.3418 41.2351 14.475 41.2351 17.1291L41.2203 17.8959ZM37.1801 14.7256C36.9147 13.8311 36.3888 13.1037 35.6024 12.5433C34.8258 11.983 33.9214 11.7029 32.8892 11.7029C31.7686 11.7029 30.7856 12.0174 29.9402 12.6466C29.4093 13.0398 28.9178 13.7328 28.4656 14.7256H37.1801Z" fill="black"/>
<path d="M42.7686 8.70956H46.8678L50.9228 18.176L54.963 8.70956H59.0474L52.2203 24.7525H49.6104L42.7686 8.70956Z" fill="black"/>
<path d="M68.9563 8.29669C70.4701 8.29669 71.8906 8.67515 73.2177 9.43208C74.5546 10.189 75.5966 11.2163 76.3437 12.5139C77.0908 13.8114 77.4643 15.2122 77.4643 16.7163C77.4643 18.2301 77.0858 19.6457 76.3289 20.9629C75.5818 22.2802 74.5595 23.3123 73.2619 24.0594C71.9643 24.7967 70.534 25.1653 68.971 25.1653C66.6707 25.1653 64.7047 24.3494 63.0729 22.7176C61.4509 21.076 60.6399 19.0853 60.6399 16.7458C60.6399 14.2391 61.559 12.1501 63.3973 10.479C65.0094 9.02413 66.8624 8.29669 68.9563 8.29669ZM69.0152 12.0862C67.7668 12.0862 66.7248 12.5237 65.8892 13.3986C65.0635 14.2636 64.6506 15.3744 64.6506 16.731C64.6506 18.1269 65.0586 19.2574 65.8745 20.1224C66.7002 20.9875 67.7422 21.42 69.0005 21.42C70.2588 21.42 71.3057 20.9826 72.1413 20.1077C72.9768 19.2328 73.3946 18.1072 73.3946 16.731C73.3946 15.3548 72.9817 14.2391 72.156 13.3838C71.3401 12.5188 70.2932 12.0862 69.0152 12.0862Z" fill="black"/>
<defs>
<linearGradient id="paint0_linear" x1="3.83211" y1="4.61903" x2="3.83211" y2="20.2991" gradientUnits="userSpaceOnUse">
<stop stop-color="#7E7E7E" stop-opacity="0"/>
<stop offset="0.921875" stop-color="#03C1CF"/>
</linearGradient>
</defs>
</svg>
